<?xml version="1.0" encoding="iso-8859-1"?>
<!-- Uploaded to: SVG Repo, www.svgrepo.com, Generator: SVG Repo Mixer Tools -->
<!DOCTYPE svg PUBLIC "-//W3C//DTD SVG 1.1//EN" "http://www.w3.org/Graphics/SVG/1.1/DTD/svg11.dtd">
<svg fill="#000000" version="1.1" id="Capa_1" xmlns="http://www.w3.org/2000/svg" xmlns:xlink="http://www.w3.org/1999/xlink" 
	 width="800px" height="800px" viewBox="0 0 46.001 46.002"
	 xml:space="preserve">
<g>
	<path d="M23.006,0h-0.004C10.813,0,0.896,9.918,0.896,22.107c0,7.743,3.95,14.745,10.445,18.761l-1.097,1.967
		c-0.368,0.659-0.359,1.464,0.023,2.115c0.382,0.649,1.08,1.052,1.836,1.052h17.52c0.771,0,1.482-0.418,1.859-1.092l1.823-3.27
		c2.21-1.168,4.202-2.705,5.932-4.572c0.364-0.394,0.565-0.908,0.565-1.444v-6.623h2.591c0.981,0,1.835-0.67,2.067-1.623
		c0.431-1.751,0.646-3.522,0.646-5.271C45.108,9.918,35.193,0,23.006,0z M32.314,21.301h-2.936
		c-0.353,1.915-1.336,3.643-2.808,4.903v0.709c0,1.112-0.587,2.085-1.464,2.639v3.005c0,0.861-0.7,1.562-1.563,1.562h-5.083
		c-0.864,0-1.564-0.7-1.564-1.562v-3.005c-0.876-0.555-1.462-1.524-1.462-2.639v-0.709c-1.473-1.263-2.456-2.988-2.809-4.903H9.692
		c-0.864,0-1.564-0.7-1.564-1.564c0-0.863,0.7-1.563,1.564-1.563h2.934c0.223-1.188,0.689-2.29,1.351-3.25L11.9,12.848
		c-0.611-0.611-0.611-1.602,0-2.213c0.61-0.61,1.601-0.609,2.212,0l2.078,2.078c0.961-0.658,2.063-1.123,3.25-1.344V8.428
		c0-0.863,0.7-1.562,1.563-1.562s1.563,0.699,1.563,1.562v2.941c1.188,0.221,2.29,0.686,3.25,1.346l2.077-2.079
		c0.61-0.61,1.603-0.61,2.213-0.001c0.61,0.611,0.61,1.602,0,2.213l-2.077,2.078c0.66,0.959,1.127,2.061,1.35,3.248h2.936
		c0.863,0,1.562,0.7,1.562,1.563C33.876,20.601,33.177,21.301,32.314,21.301z M26.402,19.746c0,2.104-1.205,3.921-2.959,4.812v2.354
		h-4.881v-2.354c-1.755-0.894-2.959-2.709-2.959-4.812c0-2.982,2.417-5.399,5.4-5.399C23.984,14.347,26.402,16.764,26.402,19.746z"
		/>
</g>
</svg>